<?xml version="1.0" standalone="no"?>
<!DOCTYPE svg PUBLIC "-//W3C//DTD SVG 20010904//EN"
 "http://www.w3.org/TR/2001/REC-SVG-20010904/DTD/svg10.dtd">
<svg version="1.0" xmlns="http://www.w3.org/2000/svg"
 width="260.000000pt" height="260.000000pt" viewBox="0 0 260.000000 260.000000"
 preserveAspectRatio="xMidYMid meet">
<metadata>
Created by potrace 1.11, written by Peter Selinger 2001-2013
</metadata>
<g transform="translate(0.000000,260.000000) scale(0.100000,-0.100000)"
fill="#000000" stroke="none">
<path d="M1360 2074 c-290 -26 -483 -57 -706 -114 -212 -55 -222 -61 -257
-149 -26 -68 -62 -201 -55 -206 2 -1 264 -17 582 -34 319 -18 645 -37 725 -42
276 -16 825 -8 847 14 8 8 -65 163 -142 300 -61 108 -98 142 -190 177 -110 41
-214 52 -494 55 -146 1 -285 1 -310 -1z m624 -127 c23 -15 127 -291 124 -327
l-3 -25 -276 -3 c-229 -2 -278 0 -288 12 -7 8 -21 72 -31 143 -11 70 -22 142
-25 160 -10 57 -3 58 251 55 159 -2 235 -7 248 -15z m-550 -14 c11 -42 37
-262 34 -294 l-3 -34 -230 -3 c-126 -1 -235 0 -241 2 -11 4 14 128 56 287 l10
37 148 9 c228 15 220 15 226 -4z m799 1 l47 -7 85 -157 c47 -86 85 -161 85
-167 0 -6 -8 -14 -17 -18 -28 -10 -281 6 -292 19 -13 16 -121 312 -121 332 0
15 9 16 83 11 45 -4 104 -10 130 -13z m-1223 -33 c0 -22 -59 -281 -66 -293 -4
-7 -143 0 -152 7 -4 3 58 257 67 275 5 9 29 17 57 21 90 11 94 10 94 -10z
m-195 -13 c2 -7 -10 -71 -28 -143 l-32 -130 -54 -3 c-30 -2 -57 0 -62 5 -7 7
47 249 58 263 2 2 25 7 51 11 26 3 51 7 55 8 4 0 10 -5 12 -11z m-155 -25 c0
-10 -13 -67 -28 -128 l-28 -110 -52 -3 c-63 -4 -63 -4 -24 143 26 95 29 100
57 106 56 12 75 10 75 -8z"/>
<path d="M335 1553 c-3 -10 -9 -106 -12 -213 -5 -174 -8 -196 -25 -208 -36
-26 -11 -81 32 -67 18 6 20 2 20 -45 0 -67 18 -135 41 -156 14 -13 35 -16 91
-15 86 2 98 11 105 76 5 37 9 45 22 39 46 -19 48 -17 60 45 32 164 184 363
365 478 25 15 45 30 46 34 0 3 -154 13 -342 23 -189 9 -355 19 -369 22 -19 4
-28 0 -34 -13z m60 -373 c3 -5 2 -10 -4 -10 -6 0 -17 -12 -25 -27 l-15 -28 -1
38 c0 30 4 37 19 37 11 0 23 -4 26 -10z m34 -77 c16 -35 24 -141 13 -178 -13
-47 -43 -40 -60 15 -13 44 -12 156 2 179 12 19 32 12 45 -16z"/>
<path d="M1123 1471 c-209 -141 -331 -301 -369 -483 -17 -83 -25 -74 99 -119
l87 -31 0 -77 c0 -107 22 -189 62 -225 31 -29 32 -29 124 -22 141 10 174 27
174 92 0 25 2 26 33 20 82 -18 286 -36 461 -42 247 -8 440 7 609 47 155 38
187 59 187 122 0 23 -7 50 -15 60 -12 17 -19 18 -65 8 -28 -6 -71 -11 -95 -11
l-45 0 0 49 c0 60 10 69 92 83 l63 11 -3 271 c-2 149 -5 272 -6 273 -1 2 -67
-2 -147 -8 -154 -12 -607 -7 -859 10 -80 6 -183 13 -230 15 l-85 6 -72 -49z
m-60 -522 c15 -29 17 -54 14 -174 -3 -142 -15 -195 -44 -195 -27 0 -37 54 -37
210 -1 111 3 162 12 178 17 30 32 24 55 -19z m652 -65 c73 -8 87 -20 92 -80 6
-76 1 -79 -124 -78 -83 0 -116 4 -142 18 -33 17 -33 19 -29 73 4 40 10 60 24
70 19 14 23 14 179 -3z"/>
<path d="M60 1492 c0 -11 160 -72 188 -72 29 0 0 16 -83 45 -44 16 -86 30 -92
33 -7 2 -13 0 -13 -6z"/>
<path d="M1004 1416 c-100 -77 -197 -186 -245 -278 -44 -86 -74 -198 -55 -210
20 -14 23 -9 36 63 20 117 85 232 188 337 48 49 103 100 122 115 19 14 33 26
30 26 -3 1 -37 -24 -76 -53z"/>
<path d="M132 1399 c4 -13 128 -62 136 -54 9 9 -4 16 -73 41 -38 14 -65 19
-63 13z"/>
<path d="M6 1371 c14 -13 236 -92 242 -86 9 9 -5 16 -114 56 -106 38 -148 48
-128 30z"/>
</g>
</svg>
