<svg version="1" xmlns="http://www.w3.org/2000/svg" width="346.667" height="346.667" viewBox="0 0 260.000000 260.000000"><path d="M109.7 2.1C93.6 6 79.7 14.3 67.4 27.2c-30.3 31.9-31.1 78.4-2 119.1 3.4 4.7 13.1 16.9 21.6 27.2 8.5 10.3 18 22.2 21.1 26.5 12 16.8 19.6 35.6 20.6 51.3.6 9.4 2.3 10.1 2.3 1.1 0-2.8 1.1-9.4 2.4-14.5 5.2-20.6 13.7-34.5 42.5-69.4 22.3-27 31.1-41.5 36.8-60.4 3.4-11.2 3.8-31.6.9-42.4-4.2-15.8-10.6-27.5-21-38.4C180.1 14.1 166.4 6 149.8 2c-11.1-2.7-29.1-2.6-40.1.1zm56.9 50.4c2.6 1.5 5.4 4.3 6.9 6.9l2.6 4.4-.3 29.4-.3 29.5-2.9 3.7c-1.6 2.1-4.4 4.7-6.2 5.8-2.7 1.6-3.4 2.7-3.4 5 0 3.6-1.6 6.8-3.5 6.8-2.3 0-4.5-3-4.5-6.1V135h-48v2.9c0 1.6-.7 3.7-1.6 4.5-1.8 1.9-2 1.9-4.5.6-1.4-.8-1.9-2.1-1.9-4.9 0-3.6-.4-4.1-4.4-6.5-3.2-1.9-5.1-4-7-7.8-2.6-5.2-2.6-5.2-2.6-30.7 0-14.8.5-27.2 1.1-29.4 1.2-4.6 6.3-10.5 10.4-12.3 2.3-1 10.7-1.3 34.4-1.4h31.4l4.3 2.5z"/><path d="M97.5 55.9c-3.8 2.3-6.1 4.9-7.4 8.4L89 67h83.1l-.6-2.3c-1.2-3.7-3.5-6.7-6.8-8.7-3-1.9-5.2-2-33.7-2-27.9 0-30.8.2-33.5 1.9zm36 4.5c0 5.2-6.3 6.2-7.3 1.2-.7-3.3.6-4.7 4-4.4 2.9.3 3.3.7 3.3 3.2zM89.4 72.3c-.2.7-.3 9.8-.2 20.2l.3 19 41.3.3 41.2.2V71h-41c-32.5 0-41.2.3-41.6 1.3zm43.7 16.8c9.5 5.9 14.6 9.6 14.3 10.4-.4.9-5.3-1.7-15.9-8.2-13.1-8.1-17-11.3-13.8-11.3.4 0 7.3 4.1 15.4 9.1zm-6.7 9.5c7.9 4.7 9.2 5.9 7.8 6.8-1.5.9-21-11.6-20.5-13.1.4-1.1 1-1.1 2.9.2 1.3.8 5.7 3.6 9.8 6.1zM89.6 118.2c1.4 4.6 3.4 7.7 6.6 10 3.3 2.3 3.4 2.3 34.5 2.3 30 0 31.3-.1 34-2.1 3.5-2.6 7.3-8.1 7.3-10.5 0-1.8-1.8-1.9-41.6-1.9H88.9l.7 2.2zm18.9 4.2c0 5.2-6.3 6.2-7.3 1.2-.7-3.3.6-4.7 4-4.4 2.9.3 3.3.7 3.3 3.2zm51.5-1.9c1 1.2 1 2.1.2 4-1.3 2.9-4.3 3.3-6.6.9-1.9-1.8-1.9-2-.6-4.5 1.3-2.3 5.2-2.5 7-.4z"/></svg>